<svg xmlns="http://www.w3.org/2000/svg" xmlns:xlink="http://www.w3.org/1999/xlink" contentStyleType="text/css" height="668px" preserveAspectRatio="none" style="width:833px;height:668px;background:#FFFFFF;" version="1.1" viewBox="0 0 833 668" width="833px" zoomAndPan="magnify"><defs/><g><!--cluster 2567a5ec9705eb7ac2c984033e06189d--><g id="cluster_2567a5ec9705eb7ac2c984033e06189d"><polygon fill="none" points="16,40.44,26,30.44,324,30.44,324,550.37,314,560.37,16,560.37,16,40.44" style="stroke:#181818;stroke-width:1.0;"/><line style="stroke:#181818;stroke-width:1.0;" x1="314" x2="324" y1="40.44" y2="30.44"/><line style="stroke:#181818;stroke-width:1.0;" x1="16" x2="314" y1="40.44" y2="40.44"/><line style="stroke:#181818;stroke-width:1.0;" x1="314" x2="314" y1="40.44" y2="560.37"/><text fill="#000000" font-family="sans-serif" font-size="14" font-weight="bold" lengthAdjust="spacing" textLength="35" x="148.5" y="56.4351">Web</text></g><!--cluster d77d5e503ad1439f585ac494268b351b--><g id="cluster_d77d5e503ad1439f585ac494268b351b"><polygon fill="none" points="410,16,420,6,816,6,816,550.37,806,560.37,410,560.37,410,16" style="stroke:#181818;stroke-width:1.0;"/><line style="stroke:#181818;stroke-width:1.0;" x1="806" x2="816" y1="16" y2="6"/><line style="stroke:#181818;stroke-width:1.0;" x1="410" x2="806" y1="16" y2="16"/><line style="stroke:#181818;stroke-width:1.0;" x1="806" x2="806" y1="16" y2="560.37"/><text fill="#000000" font-family="sans-serif" font-size="14" font-weight="bold" lengthAdjust="spacing" textLength="21" x="598.5" y="31.9951">Db</text></g><!--entity 04a565d19766ebe0348853b17c395bd1--><g id="elem_04a565d19766ebe0348853b17c395bd1"><rect fill="#F1F1F1" height="95.1875" rx="2.5" ry="2.5" style="stroke:#181818;stroke-width:0.5;" width="276" x="32" y="70.44"/><rect fill="#F1F1F1" height="10" style="stroke:#181818;stroke-width:0.5;" width="15" x="288" y="75.44"/><rect fill="#F1F1F1" height="2" style="stroke:#181818;stroke-width:0.5;" width="4" x="286" y="77.44"/><rect fill="#F1F1F1" height="2" style="stroke:#181818;stroke-width:0.5;" width="4" x="286" y="81.44"/><text fill="#000000" font-family="sans-serif" font-size="14" font-weight="bold" lengthAdjust="spacing" textLength="34" x="47" y="103.4351">web</text><text fill="#000000" font-family="sans-serif" font-size="14" lengthAdjust="spacing" textLength="4" x="47" y="119.732">&#160;</text><text fill="#000000" font-family="sans-serif" font-size="14" lengthAdjust="spacing" textLength="236" x="47" y="136.0289">image: geo_sensor_gaps_webapp</text><text fill="#000000" font-family="sans-serif" font-size="14" lengthAdjust="spacing" textLength="4" x="47" y="152.3257">&#160;</text></g><!--entity fd433df176955d196b161b0a41a19970--><g id="elem_fd433df176955d196b161b0a41a19970"><ellipse cx="257" cy="280.08" fill="#F1F1F1" rx="8" ry="8" style="stroke:#181818;stroke-width:0.5;"/><text fill="#000000" font-family="sans-serif" font-size="14" lengthAdjust="spacing" textLength="36" x="239" y="310.0751">8000</text></g><!--entity 874f49994a1f56f4ba4a4da89f34713d--><g id="elem_874f49994a1f56f4ba4a4da89f34713d"><rect fill="#F1F1F1" height="39.2969" rx="2.5" ry="2.5" style="stroke:#181818;stroke-width:0.5;" width="61" x="139.5" y="505.08"/><polygon fill="#F1F1F1" points="183.5,510.08,183.5,524.08,195.5,524.08,195.5,516.08,189.5,510.08,183.5,510.08" style="stroke:#181818;stroke-width:0.5;"/><line style="stroke:#181818;stroke-width:0.5;" x1="189.5" x2="189.5" y1="510.08" y2="516.08"/><line style="stroke:#181818;stroke-width:0.5;" x1="195.5" x2="189.5" y1="516.08" y2="516.08"/><text fill="#000000" font-family="sans-serif" font-size="14" lengthAdjust="spacing" textLength="31" x="149.5" y="531.0751">/app</text></g><!--entity 355aeb7ac3f8fa43e8d94fbf0e4b8d6c--><g id="elem_355aeb7ac3f8fa43e8d94fbf0e4b8d6c"><rect fill="#F1F1F1" height="144.0781" rx="2.5" ry="2.5" style="stroke:#181818;stroke-width:0.5;" width="375" x="425.5" y="46"/><rect fill="#F1F1F1" height="10" style="stroke:#181818;stroke-width:0.5;" width="15" x="780.5" y="51"/><rect fill="#F1F1F1" height="2" style="stroke:#181818;stroke-width:0.5;" width="4" x="778.5" y="53"/><rect fill="#F1F1F1" height="2" style="stroke:#181818;stroke-width:0.5;" width="4" x="778.5" y="57"/><text fill="#000000" font-family="sans-serif" font-size="14" font-weight="bold" lengthAdjust="spacing" textLength="20" x="440.5" y="78.9951">db</text><text fill="#000000" font-family="sans-serif" font-size="14" lengthAdjust="spacing" textLength="4" x="440.5" y="95.292">&#160;</text><text fill="#000000" font-family="sans-serif" font-size="14" lengthAdjust="spacing" textLength="158" x="440.5" y="111.5889">image: postgis/postgis</text><text fill="#000000" font-family="sans-serif" font-size="14" lengthAdjust="spacing" textLength="275" x="440.5" y="127.8857">environment: POSTGRES_DB=postgres</text><text fill="#000000" font-family="sans-serif" font-size="14" lengthAdjust="spacing" textLength="292" x="440.5" y="144.1826">environment: POSTGRES_USER=postgres</text><text fill="#000000" font-family="sans-serif" font-size="14" lengthAdjust="spacing" textLength="335" x="440.5" y="160.4795">environment: POSTGRES_PASSWORD=postgres</text><text fill="#000000" font-family="sans-serif" font-size="14" lengthAdjust="spacing" textLength="4" x="440.5" y="176.7764">&#160;</text></g><!--entity fb0d5615bd2d327b138f07d1cba517a9--><g id="elem_fb0d5615bd2d327b138f07d1cba517a9"><rect fill="#F1F1F1" height="39.2969" rx="2.5" ry="2.5" style="stroke:#181818;stroke-width:0.5;" width="154" x="536" y="505.08"/><polygon fill="#F1F1F1" points="673,510.08,673,524.08,685,524.08,685,516.08,679,510.08,673,510.08" style="stroke:#181818;stroke-width:0.5;"/><line style="stroke:#181818;stroke-width:0.5;" x1="679" x2="679" y1="510.08" y2="516.08"/><line style="stroke:#181818;stroke-width:0.5;" x1="685" x2="679" y1="516.08" y2="516.08"/><text fill="#000000" font-family="sans-serif" font-size="14" lengthAdjust="spacing" textLength="124" x="546" y="531.0751">/var/lib/postgresql</text></g><!--entity 1624c420083928ef3e240dd88f2e52f0--><g id="elem_1624c420083928ef3e240dd88f2e52f0"><ellipse cx="367" cy="415.08" fill="#F1F1F1" rx="8" ry="8" style="stroke:#181818;stroke-width:0.5;"/><text fill="#000000" font-family="sans-serif" font-size="14" lengthAdjust="spacing" textLength="36" x="349" y="445.0751">8000</text></g><!--entity 58b9e70b65a77700ba66e9c64d6b9f89--><g id="elem_58b9e70b65a77700ba66e9c64d6b9f89"><rect fill="#F1F1F1" height="39.2969" rx="2.5" ry="2.5" style="stroke:#181818;stroke-width:0.5;" width="34" x="153" y="623.37"/><polygon fill="#F1F1F1" points="170,628.37,170,642.37,182,642.37,182,634.37,176,628.37,170,628.37" style="stroke:#181818;stroke-width:0.5;"/><line style="stroke:#181818;stroke-width:0.5;" x1="176" x2="176" y1="628.37" y2="634.37"/><line style="stroke:#181818;stroke-width:0.5;" x1="182" x2="176" y1="634.37" y2="634.37"/><text fill="#000000" font-family="sans-serif" font-size="14" lengthAdjust="spacing" textLength="4" x="163" y="649.3651">.</text></g><!--entity 1b3bff591894c324e6d0194254b68417--><g id="elem_1b3bff591894c324e6d0194254b68417"><rect fill="#F1F1F1" height="39.2969" rx="2.5" ry="2.5" style="stroke:#181818;stroke-width:0.5;" width="129" x="548.5" y="623.37"/><polygon fill="#F1F1F1" points="660.5,628.37,660.5,642.37,672.5,642.37,672.5,634.37,666.5,628.37,660.5,628.37" style="stroke:#181818;stroke-width:0.5;"/><line style="stroke:#181818;stroke-width:0.5;" x1="666.5" x2="666.5" y1="628.37" y2="634.37"/><line style="stroke:#181818;stroke-width:0.5;" x1="672.5" x2="666.5" y1="634.37" y2="634.37"/><text fill="#000000" font-family="sans-serif" font-size="14" lengthAdjust="spacing" textLength="99" x="558.5" y="649.3651">postgres_data</text></g><!--link 04a565d19766ebe0348853b17c395bd1 to fd433df176955d196b161b0a41a19970--><g id="link_04a565d19766ebe0348853b17c395bd1_fd433df176955d196b161b0a41a19970"><path codeLine="27" d="M195.4,165.76 C215.76,203.22 242.56,252.52 252.79,271.33 " fill="none" id="04a565d19766ebe0348853b17c395bd1-fd433df176955d196b161b0a41a19970" style="stroke:#181818;stroke-width:1.0;"/></g><!--link fd433df176955d196b161b0a41a19970 to 1624c420083928ef3e240dd88f2e52f0--><g id="link_fd433df176955d196b161b0a41a19970_1624c420083928ef3e240dd88f2e52f0"><path codeLine="28" d="M263.55,289 C283.16,312.71 341.24,382.93 360.62,406.36 " fill="none" id="fd433df176955d196b161b0a41a19970-1624c420083928ef3e240dd88f2e52f0" style="stroke:#181818;stroke-width:1.0;"/></g><!--link 874f49994a1f56f4ba4a4da89f34713d to 58b9e70b65a77700ba66e9c64d6b9f89--><g id="link_874f49994a1f56f4ba4a4da89f34713d_58b9e70b65a77700ba66e9c64d6b9f89"><path codeLine="29" d="M170,544.67 C170,566.29 170,601.46 170,623.09 " fill="none" id="874f49994a1f56f4ba4a4da89f34713d-58b9e70b65a77700ba66e9c64d6b9f89" style="stroke:#181818;stroke-width:1.0;"/><text fill="#000000" font-family="sans-serif" font-size="13" lengthAdjust="spacing" textLength="14" x="171" y="589.4369">rw</text></g><!--link 04a565d19766ebe0348853b17c395bd1 to 874f49994a1f56f4ba4a4da89f34713d--><g id="link_04a565d19766ebe0348853b17c395bd1_874f49994a1f56f4ba4a4da89f34713d"><path codeLine="30" d="M170,165.86 C170,254.7 170,438.26 170,498.76 " fill="none" id="04a565d19766ebe0348853b17c395bd1-to-874f49994a1f56f4ba4a4da89f34713d" style="stroke:#181818;stroke-width:1.0;stroke-dasharray:7.0,7.0;"/><polygon fill="#181818" points="170,504.76,174,495.76,170,499.76,166,495.76,170,504.76" style="stroke:#181818;stroke-width:1.0;"/><text fill="#000000" font-family="sans-serif" font-size="13" lengthAdjust="spacing" textLength="23" x="171" y="352.1469">use</text></g><!--link fb0d5615bd2d327b138f07d1cba517a9 to 1b3bff591894c324e6d0194254b68417--><g id="link_fb0d5615bd2d327b138f07d1cba517a9_1b3bff591894c324e6d0194254b68417"><path codeLine="31" d="M613,544.67 C613,566.29 613,601.46 613,623.09 " fill="none" id="fb0d5615bd2d327b138f07d1cba517a9-1b3bff591894c324e6d0194254b68417" style="stroke:#181818;stroke-width:1.0;"/><text fill="#000000" font-family="sans-serif" font-size="13" lengthAdjust="spacing" textLength="14" x="614" y="589.4369">rw</text></g><!--link 355aeb7ac3f8fa43e8d94fbf0e4b8d6c to fb0d5615bd2d327b138f07d1cba517a9--><g id="link_355aeb7ac3f8fa43e8d94fbf0e4b8d6c_fb0d5615bd2d327b138f07d1cba517a9"><path codeLine="32" d="M613,190.46 C613,285.98 613,443.74 613,498.94 " fill="none" id="355aeb7ac3f8fa43e8d94fbf0e4b8d6c-to-fb0d5615bd2d327b138f07d1cba517a9" style="stroke:#181818;stroke-width:1.0;stroke-dasharray:7.0,7.0;"/><polygon fill="#181818" points="613,504.94,617,495.94,613,499.94,609,495.94,613,504.94" style="stroke:#181818;stroke-width:1.0;"/><text fill="#000000" font-family="sans-serif" font-size="13" lengthAdjust="spacing" textLength="23" x="614" y="352.1469">use</text></g><!--SRC=[XLDBYzim4BxhLmYVsi0caZLw1LfeoTBZBicMFPGIPlG8XiHEutHJAFtlzJe9pHwAJZxecvdlPTnkkzEk-TMq6zPsCV7gEL75iUUrDXPr2juAdSXYg8Dt89HAmaZd8__DUEXs-wvDxP4BG6rqbDuQaoW91SvfHT86vJL5oR-noUIKQ39XhDdX9itv9dNhFhLzTrXlSD-lXrVSxndxpjwzvvKJGemySWIbOfRMUFrwm90qaWI2HEa7SWmFnoPZEF9gDioFCyv21kyzeCpQP204X8ZEPmLMgiZ-NCGkpbgZjL4dBHH62SfdxJG6y50RHqfBUgjLQOsZ8ogxZA2IYnuoPP60N3HXr1flfUwx_hXf-jdborBxqXowTZTic_F7XzNJb-NzQhtu_6447DB_45zNzyiIvl7JQlNyi5pymmsEtdZqWeVPjg7PzVd7zcmpYQYD7BAgewejIUMoi546GYqj-i6oDx58KqE0MWYdVErILga64QDpkKwwphUnJCS1xSWdAyXejDOAGJWqnGS3qP3FpjyCNAcj8nxnV8qKvQpzK3m8gePaef13FXh8E92M5Vjt5-_ALIe1nYr5vQNsZLjATl0vhmwdgYniEetJwSTYvL_t_UnJnKf1dpKM_BwoA_uA5tR5enTsVm40]--></g></svg>