<svg xmlns="http://www.w3.org/2000/svg" xmlns:xlink="http://www.w3.org/1999/xlink" contentStyleType="text/css" height="367px" preserveAspectRatio="none" style="width:927px;height:367px;background:#FFFFFF;" version="1.1" viewBox="0 0 927 367" width="927px" zoomAndPan="magnify"><defs/><g><!--cluster 81099719263c046ecfbd8743a95bdbf0--><g id="cluster_81099719263c046ecfbd8743a95bdbf0"><path d="M8.5,6 L121.5,6 A3.75,3.75 0 0 1 124,8.5 L131,28.2969 L735.5,28.2969 A2.5,2.5 0 0 1 738,30.7969 L738,358.28 A2.5,2.5 0 0 1 735.5,360.78 L8.5,360.78 A2.5,2.5 0 0 1 6,358.28 L6,8.5 A2.5,2.5 0 0 1 8.5,6 " fill="none" style="stroke:#000000;stroke-width:1.5;"/><line style="stroke:#000000;stroke-width:1.5;" x1="6" x2="131" y1="28.2969" y2="28.2969"/><text fill="#000000" font-family="sans-serif" font-size="14" font-weight="bold" lengthAdjust="spacing" textLength="112" x="10" y="20.9951">mine_the_gap/</text></g><!--cluster 5e45856409ed6cebb9f1b9afa36020a7--><g id="cluster_5e45856409ed6cebb9f1b9afa36020a7"><path d="M32.5,49 L78.5,49 A3.75,3.75 0 0 1 81,51.5 L88,71.2969 L380.5,71.2969 A2.5,2.5 0 0 1 383,73.7969 L383,243.39 A2.5,2.5 0 0 1 380.5,245.89 L32.5,245.89 A2.5,2.5 0 0 1 30,243.39 L30,51.5 A2.5,2.5 0 0 1 32.5,49 " fill="none" style="stroke:#000000;stroke-width:1.5;"/><line style="stroke:#000000;stroke-width:1.5;" x1="30" x2="88" y1="71.2969" y2="71.2969"/><text fill="#000000" font-family="sans-serif" font-size="14" font-weight="bold" lengthAdjust="spacing" textLength="45" x="34" y="63.9951">tests/</text></g><!--cluster a095c2bf33eff614f95c94b1537e2462--><g id="cluster_a095c2bf33eff614f95c94b1537e2462"><path d="M56.5,92 L102.5,92 A3.75,3.75 0 0 1 105,94.5 L112,114.2969 L163.5,114.2969 A2.5,2.5 0 0 1 166,116.7969 L166,219.39 A2.5,2.5 0 0 1 163.5,221.89 L56.5,221.89 A2.5,2.5 0 0 1 54,219.39 L54,94.5 A2.5,2.5 0 0 1 56.5,92 " fill="none" style="stroke:#000000;stroke-width:1.5;"/><line style="stroke:#000000;stroke-width:1.5;" x1="54" x2="112" y1="114.2969" y2="114.2969"/><text fill="#000000" font-family="sans-serif" font-size="14" font-weight="bold" lengthAdjust="spacing" textLength="45" x="58" y="106.9951">tests/</text></g><!--cluster 0ac86c4f002b1c63b7812e513e066670--><g id="cluster_0ac86c4f002b1c63b7812e513e066670"><path d="M764.5,92 L907.5,92 A3.75,3.75 0 0 1 910,94.5 L917,114.2969 L917.5,114.2969 A2.5,2.5 0 0 1 920,116.7969 L920,219.39 A2.5,2.5 0 0 1 917.5,221.89 L764.5,221.89 A2.5,2.5 0 0 1 762,219.39 L762,94.5 A2.5,2.5 0 0 1 764.5,92 " fill="none" style="stroke:#000000;stroke-width:1.5;"/><line style="stroke:#000000;stroke-width:1.5;" x1="762" x2="917" y1="114.2969" y2="114.2969"/><text fill="#000000" font-family="sans-serif" font-size="14" font-weight="bold" lengthAdjust="spacing" textLength="142" x="766" y="106.9951">geo_sensor_gaps/</text></g><!--entity 4df7041511498211189bb5fd67761d1a--><g id="elem_4df7041511498211189bb5fd67761d1a"><rect fill="#F1F1F1" height="78.8906" rx="2.5" ry="2.5" style="stroke:#181818;stroke-width:0.5;" width="86" x="402" y="265.89"/><rect fill="#F1F1F1" height="10" style="stroke:#181818;stroke-width:0.5;" width="15" x="468" y="270.89"/><rect fill="#F1F1F1" height="2" style="stroke:#181818;stroke-width:0.5;" width="4" x="466" y="272.89"/><rect fill="#F1F1F1" height="2" style="stroke:#181818;stroke-width:0.5;" width="4" x="466" y="276.89"/><text fill="#000000" font-family="sans-serif" font-size="14" font-weight="bold" lengthAdjust="spacing" textLength="46" x="417" y="298.8851">forms</text><text fill="#000000" font-family="sans-serif" font-size="14" lengthAdjust="spacing" textLength="4" x="417" y="315.182">&#160;</text><text fill="#000000" font-family="sans-serif" font-size="14" lengthAdjust="spacing" textLength="4" x="417" y="331.4789">&#160;</text></g><!--entity 29b09e56da70ec5e5a78fd733aaba824--><g id="elem_29b09e56da70ec5e5a78fd733aaba824"><rect fill="#F1F1F1" height="78.8906" rx="2.5" ry="2.5" style="stroke:#181818;stroke-width:0.5;" width="86" x="402" y="127"/><rect fill="#F1F1F1" height="10" style="stroke:#181818;stroke-width:0.5;" width="15" x="468" y="132"/><rect fill="#F1F1F1" height="2" style="stroke:#181818;stroke-width:0.5;" width="4" x="466" y="134"/><rect fill="#F1F1F1" height="2" style="stroke:#181818;stroke-width:0.5;" width="4" x="466" y="138"/><text fill="#000000" font-family="sans-serif" font-size="14" font-weight="bold" lengthAdjust="spacing" textLength="46" x="417" y="159.9951">views</text><text fill="#000000" font-family="sans-serif" font-size="14" lengthAdjust="spacing" textLength="4" x="417" y="176.292">&#160;</text><text fill="#000000" font-family="sans-serif" font-size="14" lengthAdjust="spacing" textLength="4" x="417" y="192.5889">&#160;</text></g><!--entity c5e97e504e0d067c7b9bc0012fe44e1c--><g id="elem_c5e97e504e0d067c7b9bc0012fe44e1c"><rect fill="#F1F1F1" height="78.8906" rx="2.5" ry="2.5" style="stroke:#181818;stroke-width:0.5;" width="78" x="523" y="127"/><rect fill="#F1F1F1" height="10" style="stroke:#181818;stroke-width:0.5;" width="15" x="581" y="132"/><rect fill="#F1F1F1" height="2" style="stroke:#181818;stroke-width:0.5;" width="4" x="579" y="134"/><rect fill="#F1F1F1" height="2" style="stroke:#181818;stroke-width:0.5;" width="4" x="579" y="138"/><text fill="#000000" font-family="sans-serif" font-size="14" font-weight="bold" lengthAdjust="spacing" textLength="38" x="538" y="159.9951">apps</text><text fill="#000000" font-family="sans-serif" font-size="14" lengthAdjust="spacing" textLength="4" x="538" y="176.292">&#160;</text><text fill="#000000" font-family="sans-serif" font-size="14" lengthAdjust="spacing" textLength="4" x="538" y="192.5889">&#160;</text></g><!--entity 65d01c3aa5eef89b4c538f44f0db3bf5--><g id="elem_65d01c3aa5eef89b4c538f44f0db3bf5"><rect fill="#F1F1F1" height="78.8906" rx="2.5" ry="2.5" style="stroke:#181818;stroke-width:0.5;" width="97" x="248.5" y="265.89"/><rect fill="#F1F1F1" height="10" style="stroke:#181818;stroke-width:0.5;" width="15" x="325.5" y="270.89"/><rect fill="#F1F1F1" height="2" style="stroke:#181818;stroke-width:0.5;" width="4" x="323.5" y="272.89"/><rect fill="#F1F1F1" height="2" style="stroke:#181818;stroke-width:0.5;" width="4" x="323.5" y="276.89"/><text fill="#000000" font-family="sans-serif" font-size="14" font-weight="bold" lengthAdjust="spacing" textLength="57" x="263.5" y="298.8851">models</text><text fill="#000000" font-family="sans-serif" font-size="14" lengthAdjust="spacing" textLength="4" x="263.5" y="315.182">&#160;</text><text fill="#000000" font-family="sans-serif" font-size="14" lengthAdjust="spacing" textLength="4" x="263.5" y="331.4789">&#160;</text></g><!--entity 5d6383f9fea43d4a2ef84784e69d0194--><g id="elem_5d6383f9fea43d4a2ef84784e69d0194"><rect fill="#F1F1F1" height="78.8906" rx="2.5" ry="2.5" style="stroke:#181818;stroke-width:0.5;" width="87" x="635.5" y="127"/><rect fill="#F1F1F1" height="10" style="stroke:#181818;stroke-width:0.5;" width="15" x="702.5" y="132"/><rect fill="#F1F1F1" height="2" style="stroke:#181818;stroke-width:0.5;" width="4" x="700.5" y="134"/><rect fill="#F1F1F1" height="2" style="stroke:#181818;stroke-width:0.5;" width="4" x="700.5" y="138"/><text fill="#000000" font-family="sans-serif" font-size="14" font-weight="bold" lengthAdjust="spacing" textLength="47" x="650.5" y="159.9951">admin</text><text fill="#000000" font-family="sans-serif" font-size="14" lengthAdjust="spacing" textLength="4" x="650.5" y="176.292">&#160;</text><text fill="#000000" font-family="sans-serif" font-size="14" lengthAdjust="spacing" textLength="4" x="650.5" y="192.5889">&#160;</text></g><!--entity b019999c8128fe2cb8f9d0c2bbb0e5bf--><g id="elem_b019999c8128fe2cb8f9d0c2bbb0e5bf"><rect fill="#F1F1F1" height="78.8906" rx="2.5" ry="2.5" style="stroke:#181818;stroke-width:0.5;" width="182" x="185" y="127"/><rect fill="#F1F1F1" height="10" style="stroke:#181818;stroke-width:0.5;" width="15" x="347" y="132"/><rect fill="#F1F1F1" height="2" style="stroke:#181818;stroke-width:0.5;" width="4" x="345" y="134"/><rect fill="#F1F1F1" height="2" style="stroke:#181818;stroke-width:0.5;" width="4" x="345" y="138"/><text fill="#000000" font-family="sans-serif" font-size="14" font-weight="bold" lengthAdjust="spacing" textLength="142" x="200" y="159.9951">test_non_db_tests</text><text fill="#000000" font-family="sans-serif" font-size="14" lengthAdjust="spacing" textLength="4" x="200" y="176.292">&#160;</text><text fill="#000000" font-family="sans-serif" font-size="14" lengthAdjust="spacing" textLength="4" x="200" y="192.5889">&#160;</text></g><!--entity 9daf85bd1096c8a8a2a900982e5e7cfb--><g id="elem_9daf85bd1096c8a8a2a900982e5e7cfb"><rect fill="#F1F1F1" height="78.8906" rx="2.5" ry="2.5" style="stroke:#181818;stroke-width:0.5;" width="80" x="70" y="127"/><rect fill="#F1F1F1" height="10" style="stroke:#181818;stroke-width:0.5;" width="15" x="130" y="132"/><rect fill="#F1F1F1" height="2" style="stroke:#181818;stroke-width:0.5;" width="4" x="128" y="134"/><rect fill="#F1F1F1" height="2" style="stroke:#181818;stroke-width:0.5;" width="4" x="128" y="138"/><text fill="#000000" font-family="sans-serif" font-size="14" font-weight="bold" lengthAdjust="spacing" textLength="40" x="85" y="159.9951">tests</text><text fill="#000000" font-family="sans-serif" font-size="14" lengthAdjust="spacing" textLength="4" x="85" y="176.292">&#160;</text><text fill="#000000" font-family="sans-serif" font-size="14" lengthAdjust="spacing" textLength="4" x="85" y="192.5889">&#160;</text></g><!--entity cc890e288244e9ca414ad2bec9cf3e65--><g id="elem_cc890e288244e9ca414ad2bec9cf3e65"><rect fill="#F1F1F1" height="78.8906" rx="2.5" ry="2.5" style="stroke:#181818;stroke-width:0.5;" width="70" x="778" y="127"/><rect fill="#F1F1F1" height="10" style="stroke:#181818;stroke-width:0.5;" width="15" x="828" y="132"/><rect fill="#F1F1F1" height="2" style="stroke:#181818;stroke-width:0.5;" width="4" x="826" y="134"/><rect fill="#F1F1F1" height="2" style="stroke:#181818;stroke-width:0.5;" width="4" x="826" y="138"/><text fill="#000000" font-family="sans-serif" font-size="14" font-weight="bold" lengthAdjust="spacing" textLength="30" x="793" y="159.9951">urls</text><text fill="#000000" font-family="sans-serif" font-size="14" lengthAdjust="spacing" textLength="4" x="793" y="176.292">&#160;</text><text fill="#000000" font-family="sans-serif" font-size="14" lengthAdjust="spacing" textLength="4" x="793" y="192.5889">&#160;</text></g><!--link 9daf85bd1096c8a8a2a900982e5e7cfb to 65d01c3aa5eef89b4c538f44f0db3bf5--><g id="link_9daf85bd1096c8a8a2a900982e5e7cfb_65d01c3aa5eef89b4c538f44f0db3bf5"><path codeLine="50" d="M122.27,206.05 C129.26,222.71 139.56,241.24 154,253.89 C180.43,277.05 212.331,288.4322 242.411,295.3122 " fill="none" id="9daf85bd1096c8a8a2a900982e5e7cfb-to-65d01c3aa5eef89b4c538f44f0db3bf5" style="stroke:#181818;stroke-width:1.0;"/><polygon fill="#181818" points="248.26,296.65,240.3784,290.744,243.3859,295.5352,238.5947,298.5426,248.26,296.65" style="stroke:#181818;stroke-width:1.0;"/></g><!--link b019999c8128fe2cb8f9d0c2bbb0e5bf to 65d01c3aa5eef89b4c538f44f0db3bf5--><g id="link_b019999c8128fe2cb8f9d0c2bbb0e5bf_65d01c3aa5eef89b4c538f44f0db3bf5"><path codeLine="51" d="M281.96,206.31 C284.82,224.96 287.3286,241.3096 290.1886,259.9196 " fill="none" id="b019999c8128fe2cb8f9d0c2bbb0e5bf-to-65d01c3aa5eef89b4c538f44f0db3bf5" style="stroke:#181818;stroke-width:1.0;"/><polygon fill="#181818" points="291.1,265.85,293.6865,256.3468,290.3405,260.908,285.7793,257.562,291.1,265.85" style="stroke:#181818;stroke-width:1.0;"/></g><!--link 29b09e56da70ec5e5a78fd733aaba824 to 4df7041511498211189bb5fd67761d1a--><g id="link_29b09e56da70ec5e5a78fd733aaba824_4df7041511498211189bb5fd67761d1a"><path codeLine="52" d="M445,206.31 C445,224.96 445,241.24 445,259.85 " fill="none" id="29b09e56da70ec5e5a78fd733aaba824-to-4df7041511498211189bb5fd67761d1a" style="stroke:#181818;stroke-width:1.0;"/><polygon fill="#181818" points="445,265.85,449,256.85,445,260.85,441,256.85,445,265.85" style="stroke:#181818;stroke-width:1.0;"/></g><!--link 29b09e56da70ec5e5a78fd733aaba824 to 65d01c3aa5eef89b4c538f44f0db3bf5--><g id="link_29b09e56da70ec5e5a78fd733aaba824_65d01c3aa5eef89b4c538f44f0db3bf5"><path codeLine="53" d="M422.15,206.36 C411.57,222.31 398.01,240.2 383,253.89 C372,263.92 363.8681,269.879 351.0381,277.389 " fill="none" id="29b09e56da70ec5e5a78fd733aaba824-to-65d01c3aa5eef89b4c538f44f0db3bf5" style="stroke:#181818;stroke-width:1.0;"/><polygon fill="#181818" points="345.86,280.42,355.6479,279.3256,350.1751,277.8942,351.6065,272.4214,345.86,280.42" style="stroke:#181818;stroke-width:1.0;"/></g><!--link cc890e288244e9ca414ad2bec9cf3e65 to 65d01c3aa5eef89b4c538f44f0db3bf5--><g id="link_cc890e288244e9ca414ad2bec9cf3e65_65d01c3aa5eef89b4c538f44f0db3bf5"><path codeLine="54" d="M790.21,206.02 C777.34,223.99 759.52,243.62 738,253.89 C702.58,270.79 423.27,257.21 385,265.89 C371.83,268.88 363.6928,271.4517 351.1928,276.8217 " fill="none" id="cc890e288244e9ca414ad2bec9cf3e65-to-65d01c3aa5eef89b4c538f44f0db3bf5" style="stroke:#181818;stroke-width:1.0;"/><polygon fill="#181818" points="345.68,279.19,355.5281,279.3128,350.274,277.2164,352.3704,271.9623,345.68,279.19" style="stroke:#181818;stroke-width:1.0;"/></g><!--SRC=[ZLFRYjim47ttLvXz32mTIQFRIt-a53CZpQIXYHtYT7UXzD-hTRPfGw2Ez2JGkUZC4Uttq-jXzxORjzsHodVQIlzqs8qodB_9iANZfwUUvZuPo3cQR8ChW46ASaqH7MNFbHNwdrsP3iTfbF7SOzK8QBmnc9CrngJCxBM668EfXleltMQZq-amRpPTrttz1sepGnOVAaMGuiLJJ5gZSqHCoU82VTd9wpsqtSvHFA10XH1BvCm5m5WLH35bWTBnU8yCle8fJSABQFEAnRkaY0gL7QjVa8UfoluUwsjmoMbM8NGLoJO6Z0abv4QQBuQfjaG_eDUGppAVvqkwNj0d7x0zlOOYp5aDPr9o0InGl4cN6srR9HcRL6pXf4sgM6O6yQoBuZlvC4xZK7bOXFwZJf1zWwjpeXeCQZjcPEDT58l1tgZdIfhQp5iVGacKo586Q6CMBx6rugh-H_7Nig-wMvc6MSPvEhsNwyC1K4cXjBp1iYd1SMoF4s-SG0WXthQhb9H1R6fjGCc5q21Lor9oKIVXCgqVf_rV0wkUd-lpvzKMTAl1FqQpMl65PkqFFKYpwcOrpOTeVWC0]--></g></svg>